HIERARCHY
ROOT Hips
{
	OFFSET 0.000000 0.000000 0.000000
	CHANNELS 6 Xposition Yposition Zposition Xrotation Yrotation Zrotation
	JOINT Spine
	{
		OFFSET 0.000000 0.000000 -0.000105
		CHANNELS 6 Xposition Yposition Zposition Xrotation Yrotation Zrotation
		JOINT Spine1
		{
			OFFSET 0.000000 0.000000 -0.000238
			CHANNELS 6 Xposition Yposition Zposition Xrotation Yrotation Zrotation
			JOINT Neck
			{
				OFFSET 0.000000 0.000000 -0.000264
				CHANNELS 6 Xposition Yposition Zposition Xrotation Yrotation Zrotation
				JOINT Head
				{
					OFFSET 0.000000 0.000026 -0.000199
					CHANNELS 6 Xposition Yposition Zposition Xrotation Yrotation Zrotation
					End Site
					{
						OFFSET 0.000000 0.000000 -0.000257
					}
				}
			}
			JOINT LeftShoulder
			{
				OFFSET 0.000051 -0.000006 -0.000215
				CHANNELS 6 Xposition Yposition Zposition Xrotation Yrotation Zrotation
				JOINT LeftArm
				{
					OFFSET 0.000149 0.000000 0.000000
					CHANNELS 6 Xposition Yposition Zposition Xrotation Yrotation Zrotation
					JOINT LeftForeArm
					{
						OFFSET 0.000385 0.000000 0.000000
						CHANNELS 6 Xposition Yposition Zposition Xrotation Yrotation Zrotation
						JOINT LeftHand
						{
							OFFSET 0.000345 0.000000 0.000000
							CHANNELS 6 Xposition Yposition Zposition Xrotation Yrotation Zrotation
							End Site
							{
								OFFSET 0.000193 0.000000 0.000000
							}
						}
					}
				}
			}
			JOINT RightShoulder
			{
				OFFSET -0.000051 -0.000006 -0.000215
				CHANNELS 6 Xposition Yposition Zposition Xrotation Yrotation Zrotation
				JOINT RightArm
				{
					OFFSET -0.000149 0.000000 0.000000
					CHANNELS 6 Xposition Yposition Zposition Xrotation Yrotation Zrotation
					JOINT RightForeArm
					{
						OFFSET -0.000385 0.000000 0.000000
						CHANNELS 6 Xposition Yposition Zposition Xrotation Yrotation Zrotation
						JOINT RightHand
						{
							OFFSET -0.000345 0.000000 0.000000
							CHANNELS 6 Xposition Yposition Zposition Xrotation Yrotation Zrotation
							End Site
							{
								OFFSET -0.000193 0.000000 0.000000
							}
						}
					}
				}
			}
		}
	}
	JOINT LeftUpLeg
	{
		OFFSET 0.000128 0.000000 0.000000
		CHANNELS 6 Xposition Yposition Zposition Xrotation Yrotation Zrotation
		JOINT LeftLeg
		{
			OFFSET 0.000000 -0.000000 0.000668
			CHANNELS 6 Xposition Yposition Zposition Xrotation Yrotation Zrotation
			JOINT LeftFoot
			{
				OFFSET 0.000000 -0.000000 0.000537
				CHANNELS 6 Xposition Yposition Zposition Xrotation Yrotation Zrotation
				JOINT LeftToeBase
				{
					OFFSET 0.000000 0.000193 0.000083
					CHANNELS 6 Xposition Yposition Zposition Xrotation Yrotation Zrotation
					End Site
					{
						OFFSET 0.000000 0.000051 0.000000
					}
				}
			}
		}
	}
	JOINT RightUpLeg
	{
		OFFSET -0.000128 0.000000 0.000000
		CHANNELS 6 Xposition Yposition Zposition Xrotation Yrotation Zrotation
		JOINT RightLeg
		{
			OFFSET 0.000000 -0.000000 0.000668
			CHANNELS 6 Xposition Yposition Zposition Xrotation Yrotation Zrotation
			JOINT RightFoot
			{
				OFFSET 0.000000 -0.000000 0.000537
				CHANNELS 6 Xposition Yposition Zposition Xrotation Yrotation Zrotation
				JOINT RightToeBase
				{
					OFFSET 0.000000 0.000193 0.000083
					CHANNELS 6 Xposition Yposition Zposition Xrotation Yrotation Zrotation
					End Site
					{
						OFFSET 0.000000 0.000051 0.000000
					}
				}
			}
		}
	}
}
MOTION
Frames: 9
Frame Time: 0.041667
-0.000034 0.000989 -0.001206 4.596886 -3.533650 -84.752751 0.000000 0.000000 -0.000105 -9.670826 1.203369 1.320445 0.000000 0.000000 -0.000238 0.957331 7.199420 0.334033 -0.000000 0.000000 -0.000264 20.202964 -17.241506 21.818597 0.000000 0.000026 -0.000199 -3.271759 25.539739 25.545454 0.000051 -0.000006 -0.000215 -5.867370 12.644759 9.968021 0.000149 -0.000000 -0.000000 17.420727 -4.326076 1.529142 0.000385 0.000000 0.000000 -18.253583 11.990366 -0.802832 0.000345 0.000000 -0.000000 -16.869258 -42.244262 3.800369 -0.000051 -0.000006 -0.000215 12.478911 -4.899680 6.180299 -0.000149 -0.000000 -0.000000 76.428628 13.234551 -74.041450 -0.000385 -0.000000 -0.000000 -17.151278 -16.672840 -14.971843 -0.000345 -0.000000 -0.000000 -14.498478 11.130678 -4.587225 0.000128 0.000000 -0.000000 -6.237918 -6.944604 -0.474237 0.000000 -0.000000 0.000668 11.876647 -3.920395 -0.947602 0.000000 -0.000000 0.000537 -9.054276 8.439526 -24.308085 0.000000 0.000193 0.000083 -0.000002 -0.000001 0.000002 -0.000128 0.000000 -0.000000 -10.991502 -7.449229 -1.346894 0.000000 -0.000000 0.000668 24.983360 5.253502 4.938211 0.000000 -0.000000 0.000537 -21.553106 -0.973705 8.709291 0.000000 0.000193 0.000083 0.000000 -0.000001 -0.000003 
-0.000034 0.000990 -0.001206 4.571662 -3.526698 -84.736543 0.000000 0.000000 -0.000105 -9.705206 1.204578 1.331983 -0.000000 0.000000 -0.000238 0.968664 7.218570 0.336752 0.000000 0.000000 -0.000264 20.187843 -17.280901 21.816179 -0.000000 0.000026 -0.000199 -3.297056 25.614444 25.560977 0.000051 -0.000006 -0.000215 -5.946591 12.673898 10.003055 0.000149 -0.000000 0.000000 17.150120 -4.307446 1.395760 0.000385 -0.000000 -0.000000 -18.073287 11.893985 -0.813982 0.000345 0.000000 -0.000000 -16.705017 -42.132992 3.770988 -0.000051 -0.000006 -0.000215 12.475961 -4.912816 6.161417 -0.000149 -0.000000 0.000000 76.347581 13.364185 -73.973558 -0.000385 -0.000000 -0.000000 -17.040634 -16.600987 -14.991838 -0.000345 0.000000 -0.000000 -14.386299 11.053674 -4.703825 0.000128 0.000000 -0.000000 -6.200613 -6.885445 -0.416663 -0.000000 -0.000000 0.000668 11.891393 -3.940159 -0.966526 -0.000000 -0.000000 0.000537 -9.077853 8.428367 -24.376026 -0.000000 0.000193 0.000083 -0.000002 0.000001 0.000001 -0.000128 0.000000 -0.000000 -10.894235 -7.431487 -1.177752 0.000000 -0.000000 0.000668 24.839050 5.285998 4.980764 0.000000 -0.000000 0.000537 -21.526084 -0.944879 8.522953 0.000000 0.000193 0.000083 -0.000003 -0.000001 -0.000006 
-0.000033 0.000991 -0.001206 4.563261 -3.503946 -84.727732 -0.000000 0.000000 -0.000105 -9.691124 1.187932 1.345518 0.000000 0.000000 -0.000238 0.935508 7.244390 0.343839 0.000000 0.000000 -0.000264 20.205822 -17.280636 21.833395 -0.000000 0.000026 -0.000199 -3.375418 25.620881 25.594857 0.000051 -0.000006 -0.000215 -5.908940 12.697173 9.939676 0.000149 -0.000000 -0.000000 16.969958 -4.263443 1.373279 0.000385 0.000000 -0.000000 -17.963867 11.850720 -0.872463 0.000345 0.000000 -0.000000 -16.586565 -42.128764 3.809804 -0.000051 -0.000006 -0.000215 12.495374 -4.908254 6.162448 -0.000149 -0.000000 -0.000000 76.279915 13.440193 -73.897422 -0.000385 -0.000000 -0.000000 -16.949198 -16.623210 -14.994955 -0.000345 0.000000 0.000000 -14.284623 11.170430 -4.723638 0.000128 -0.000000 0.000000 -6.132479 -6.868228 -0.360507 -0.000000 -0.000000 0.000668 11.839199 -3.906973 -0.989495 -0.000000 -0.000000 0.000537 -9.051845 8.403848 -24.416775 0.000000 0.000193 0.000083 0.000001 0.000001 -0.000001 -0.000128 0.000000 0.000000 -10.791654 -7.440123 -0.909026 -0.000000 -0.000000 0.000668 24.727238 5.285833 4.939263 -0.000000 -0.000000 0.000537 -21.517563 -0.906327 8.386601 -0.000000 0.000193 0.000083 -0.000003 -0.000001 -0.000003 
-0.000033 0.000992 -0.001206 4.524268 -3.502990 -84.735607 -0.000000 0.000000 -0.000105 -9.770431 1.182043 1.331268 0.000000 0.000000 -0.000238 0.970691 7.304828 0.335779 0.000000 0.000000 -0.000264 20.341309 -17.259524 21.900525 0.000000 0.000026 -0.000199 -3.555314 25.632153 25.686549 0.000051 -0.000006 -0.000215 -5.848739 12.687519 10.080815 0.000149 0.000000 0.000000 16.765603 -4.273372 1.204283 0.000385 0.000000 -0.000000 -17.840978 11.835476 -0.913219 0.000345 0.000000 -0.000000 -16.467316 -42.067183 3.817109 -0.000051 -0.000006 -0.000215 12.504059 -4.898076 6.148244 -0.000149 -0.000000 0.000000 76.194244 13.651306 -73.793828 -0.000385 -0.000000 0.000000 -16.942146 -16.589947 -15.030443 -0.000345 -0.000000 -0.000000 -14.274991 11.034306 -4.800372 0.000128 0.000000 0.000000 -6.088744 -6.808511 -0.355497 0.000000 -0.000000 0.000668 11.778940 -3.880789 -0.937867 -0.000000 -0.000000 0.000537 -9.013815 8.432992 -24.474311 0.000000 0.000193 0.000083 -0.000003 -0.000002 -0.000002 -0.000128 0.000000 0.000000 -10.700005 -7.431105 -0.722521 0.000000 -0.000000 0.000668 24.591224 5.364126 4.956539 0.000000 -0.000000 0.000537 -21.467124 -0.906493 8.231149 -0.000000 0.000193 0.000083 -0.000004 -0.000001 -0.000002 
-0.000033 0.000992 -0.001206 4.503980 -3.498302 -84.750626 0.000000 0.000000 -0.000105 -9.769763 1.184026 1.335566 -0.000000 0.000000 -0.000238 0.934815 7.322532 0.339253 -0.000000 0.000000 -0.000264 20.348230 -17.265788 21.927083 0.000000 0.000026 -0.000199 -3.600050 25.659714 25.726824 0.000051 -0.000006 -0.000215 -5.863719 12.721996 10.079275 0.000149 -0.000000 0.000000 16.652457 -4.273308 1.175557 0.000385 0.000000 0.000000 -17.735863 11.821773 -0.938477 0.000345 0.000000 -0.000000 -16.359358 -42.063751 3.831361 -0.000051 -0.000006 -0.000215 12.496136 -4.883001 6.209060 -0.000149 -0.000000 -0.000000 76.200493 13.583289 -73.749091 -0.000385 -0.000000 -0.000000 -16.999465 -16.644105 -15.002683 -0.000345 -0.000000 0.000000 -14.330054 11.149688 -4.741424 0.000128 0.000000 0.000000 -6.076286 -6.763639 -0.316875 0.000000 -0.000000 0.000668 11.828225 -3.898468 -0.994005 -0.000000 -0.000000 0.000537 -9.029774 8.414865 -24.499639 -0.000000 0.000193 0.000083 0.000001 0.000002 -0.000006 -0.000128 0.000000 0.000000 -10.613410 -7.443458 -0.475263 0.000000 -0.000000 0.000668 24.474140 5.415905 4.888402 -0.000000 -0.000000 0.000537 -21.416570 -0.906278 8.113339 0.000000 0.000193 0.000083 -0.000001 -0.000002 0.000000 
-0.000032 0.000993 -0.001207 4.480035 -3.489185 -84.783008 -0.000000 0.000000 -0.000105 -9.752402 1.214416 1.387379 -0.000000 0.000000 -0.000238 0.855518 7.304093 0.360914 -0.000000 0.000000 -0.000264 20.348112 -17.266754 21.914016 -0.000000 0.000026 -0.000199 -3.581246 25.626366 25.703890 0.000051 -0.000006 -0.000215 -5.810382 12.732682 10.037578 0.000149 -0.000000 -0.000000 16.618839 -4.209960 1.130834 0.000385 0.000000 0.000000 -17.687784 11.754772 -0.954350 0.000345 0.000000 -0.000000 -16.319853 -41.989438 3.819268 -0.000051 -0.000006 -0.000215 12.566314 -4.918610 6.201546 -0.000149 0.000000 -0.000000 76.046766 13.869839 -73.701791 -0.000385 -0.000000 -0.000000 -16.947270 -16.587775 -15.087118 -0.000345 -0.000000 -0.000000 -14.276297 11.160906 -4.701909 0.000128 0.000000 0.000000 -6.041361 -6.727161 -0.301179 0.000000 -0.000000 0.000668 11.822144 -3.865037 -1.035563 -0.000000 -0.000000 0.000537 -9.038065 8.367639 -24.446661 0.000000 0.000193 0.000083 0.000002 0.000001 0.000002 -0.000128 -0.000000 0.000000 -10.534587 -7.449182 -0.191997 -0.000000 -0.000000 0.000668 24.387359 5.446807 4.837370 -0.000000 -0.000000 0.000537 -21.384154 -0.812969 8.001419 -0.000000 0.000193 0.000083 -0.000007 0.000001 0.000001 
-0.000032 0.000994 -0.001207 4.447065 -3.481726 -84.811005 0.000000 0.000000 -0.000105 -9.753891 1.229537 1.424268 -0.000000 0.000000 -0.000238 0.831375 7.312658 0.374392 -0.000000 0.000000 -0.000264 20.330910 -17.243320 21.925109 -0.000000 0.000026 -0.000199 -3.583171 25.576224 25.711339 0.000051 -0.000006 -0.000215 -5.784905 12.744765 10.003884 0.000149 -0.000000 -0.000000 16.485242 -4.157886 1.081922 0.000385 0.000000 -0.000000 -17.553876 11.702188 -0.959312 0.000345 0.000000 -0.000000 -16.178092 -41.931440 3.845749 -0.000051 -0.000006 -0.000215 12.579726 -4.922269 6.207208 -0.000149 -0.000000 0.000000 75.983662 13.991540 -73.660920 -0.000385 -0.000000 -0.000000 -16.908750 -16.619457 -15.053344 -0.000345 -0.000000 -0.000000 -14.229638 11.202316 -4.774853 0.000128 0.000000 0.000000 -5.998593 -6.688207 -0.355708 -0.000000 -0.000000 0.000668 11.780333 -3.791091 -1.054791 -0.000000 -0.000000 0.000537 -8.998910 8.309717 -24.358550 0.000000 0.000193 0.000083 -0.000002 -0.000001 -0.000002 -0.000128 0.000000 -0.000000 -10.435590 -7.441696 -0.009539 -0.000000 -0.000000 0.000668 24.247501 5.513514 4.814232 0.000000 -0.000000 0.000537 -21.318164 -0.777088 7.916691 0.000000 0.000193 0.000083 0.000003 -0.000000 -0.000001 
-0.000032 0.000995 -0.001207 4.426638 -3.477860 -84.860668 0.000000 0.000000 -0.000105 -9.774653 1.218372 1.472450 0.000000 0.000000 -0.000238 0.812561 7.341776 0.391598 0.000000 0.000000 -0.000264 20.350866 -17.308082 21.939329 -0.000000 0.000026 -0.000199 -3.576979 25.657723 25.730923 0.000051 -0.000006 -0.000215 -5.773477 12.749853 10.001134 0.000149 0.000000 -0.000000 16.323206 -4.131073 1.000533 0.000385 -0.000000 -0.000000 -17.439703 11.645259 -0.913807 0.000345 0.000000 0.000000 -16.059808 -41.866461 3.849609 -0.000051 -0.000006 -0.000215 12.572737 -4.925921 6.218064 -0.000149 -0.000000 0.000000 75.851901 14.309922 -73.540838 -0.000385 -0.000000 -0.000000 -16.866783 -16.509050 -15.173588 -0.000345 0.000000 -0.000000 -14.186141 11.185610 -4.768905 0.000128 0.000000 0.000000 -5.979970 -6.646158 -0.324645 -0.000000 -0.000000 0.000668 11.792274 -3.769841 -1.041086 -0.000000 -0.000000 0.000537 -9.006890 8.304415 -24.354023 0.000000 0.000193 0.000083 -0.000005 -0.000002 0.000003 -0.000128 0.000000 0.000000 -10.366001 -7.450841 0.259111 0.000000 -0.000000 0.000668 24.194238 5.543664 4.816283 -0.000000 -0.000000 0.000537 -21.306405 -0.696531 7.724135 -0.000000 0.000193 0.000083 -0.000006 -0.000001 -0.000002 
-0.000031 0.000995 -0.001207 4.410163 -3.476462 -84.899443 0.000000 0.000000 -0.000105 -9.772164 1.195553 1.498446 0.000000 0.000000 -0.000238 0.771426 7.394729 0.403231 -0.000000 0.000000 -0.000264 20.337655 -17.344456 21.954332 -0.000000 0.000026 -0.000199 -3.544510 25.670725 25.740750 0.000051 -0.000006 -0.000215 -5.760445 12.744306 9.999835 0.000149 -0.000000 0.000000 16.094040 -4.108640 0.937929 0.000385 -0.000000 -0.000000 -17.302734 11.603169 -0.870252 0.000345 0.000000 -0.000000 -15.918041 -41.838177 3.852559 -0.000051 -0.000006 -0.000215 12.558663 -4.937023 6.219147 -0.000149 -0.000000 0.000000 75.825147 14.477848 -73.467782 -0.000385 -0.000000 -0.000000 -16.892569 -16.537642 -15.191534 -0.000345 -0.000000 -0.000000 -14.196545 11.072764 -4.908315 0.000128 0.000000 0.000000 -5.975007 -6.603721 -0.285116 0.000000 -0.000000 0.000668 11.814758 -3.762871 -1.101005 -0.000000 -0.000000 0.000537 -9.010840 8.277690 -24.301572 0.000000 0.000193 0.000083 0.000004 -0.000000 -0.000001 -0.000128 0.000000 0.000000 -10.301764 -7.456604 0.453258 -0.000000 -0.000000 0.000668 24.113498 5.581622 4.792951 0.000000 -0.000000 0.000537 -21.268927 -0.665549 7.573731 0.000000 0.000193 0.000083 -0.000003 -0.000000 -0.000000 
